<svg  viewBox="0 0 16 20" fill="none" xmlns="http://www.w3.org/2000/svg">
    <path d="M7.99999 20C8.52994 19.9984 9.03773 19.7872 9.41246 19.4125C9.78719 19.0377 9.99841 18.5299 9.99999 18H5.99999C5.99999 18.5304 6.21071 19.0391 6.58578 19.4142C6.96085 19.7893 7.46956 20 7.99999 20ZM14 14V9C14 5.93 12.36 3.36 9.49999 2.68V2C9.49999 1.60218 9.34196 1.22064 9.06065 0.93934C8.77935 0.658035 8.39782 0.5 7.99999 0.5C7.60217 0.5 7.22064 0.658035 6.93933 0.93934C6.65803 1.22064 6.49999 1.60218 6.49999 2V2.68C3.62999 3.36 1.99999 5.92 1.99999 9V14L0.709992 15.29C0.569571 15.4293 0.4736 15.6071 0.434214 15.8009C0.394829 15.9947 0.413798 16.1958 0.488724 16.3789C0.56365 16.5619 0.691166 16.7186 0.85515 16.8292C1.01913 16.9397 1.21222 16.9992 1.40999 17H14.58C14.7786 17.0012 14.9731 16.9431 15.1386 16.8333C15.3041 16.7235 15.4332 16.5669 15.5094 16.3835C15.5855 16.2 15.6053 15.9981 15.5663 15.8033C15.5272 15.6086 15.431 15.4299 15.29 15.29L14 14Z" fill="white"/>
    </svg>
    