<svg  viewBox="0 0 20 16" fill="none" xmlns="http://www.w3.org/2000/svg">
    <path d="M18 1.23375e-05H2.00001C1.73765 -0.000656022 1.47776 0.0506929 1.23537 0.15109C0.992974 0.251486 0.772888 0.398939 0.587835 0.584921C0.402783 0.770904 0.256435 0.991726 0.157255 1.23462C0.0580742 1.47751 0.00802889 1.73766 0.0100123 2.00001L1.23375e-05 14C-0.000912688 14.2629 0.0501873 14.5234 0.150369 14.7665C0.250551 15.0095 0.397834 15.2304 0.583736 15.4163C0.769638 15.6022 0.990484 15.7495 1.23355 15.8497C1.47662 15.9498 1.73711 16.0009 2.00001 16H18C18.2629 16.0009 18.5234 15.9498 18.7665 15.8497C19.0095 15.7495 19.2304 15.6022 19.4163 15.4163C19.6022 15.2304 19.7495 15.0095 19.8497 14.7665C19.9498 14.5234 20.0009 14.2629 20 14V2.00001C20.0009 1.73711 19.9498 1.47662 19.8497 1.23355C19.7495 0.990484 19.6022 0.769638 19.4163 0.583736C19.2304 0.397835 19.0095 0.250551 18.7665 0.150369C18.5234 0.0501873 18.2629 -0.000912688 18 1.23375e-05ZM9.00001 6.00001H6.00001V7.00001H9.00001C9.26523 7.00001 9.51958 7.10537 9.70712 7.29291C9.89466 7.48044 10 7.7348 10 8.00001V11C10 11.2652 9.89466 11.5196 9.70712 11.7071C9.51958 11.8947 9.26523 12 9.00001 12H8.00001C8.00001 12.2652 7.89466 12.5196 7.70712 12.7071C7.51958 12.8947 7.26523 13 7.00001 13C6.7348 13 6.48044 12.8947 6.29291 12.7071C6.10537 12.5196 6.00001 12.2652 6.00001 12H5.00001C4.7348 12 4.48044 11.8947 4.29291 11.7071C4.10537 11.5196 4.00001 11.2652 4.00001 11C4.00001 10.7348 4.10537 10.4804 4.29291 10.2929C4.48044 10.1054 4.7348 10 5.00001 10H8.00001V9.00001H5.00001C4.7348 9.00001 4.48044 8.89466 4.29291 8.70712C4.10537 8.51958 4.00001 8.26523 4.00001 8.00001V5.00001C4.00001 4.7348 4.10537 4.48044 4.29291 4.29291C4.48044 4.10537 4.7348 4.00001 5.00001 4.00001H6.00001C6.00001 3.7348 6.10537 3.48044 6.29291 3.29291C6.48044 3.10537 6.7348 3.00001 7.00001 3.00001C7.26523 3.00001 7.51958 3.10537 7.70712 3.29291C7.89466 3.48044 8.00001 3.7348 8.00001 4.00001H9.00001C9.26523 4.00001 9.51958 4.10537 9.70712 4.29291C9.89466 4.48044 10 4.7348 10 5.00001C10 5.26523 9.89466 5.51958 9.70712 5.70712C9.51958 5.89466 9.26523 6.00001 9.00001 6.00001ZM13.65 11.9L12 10.25H16L14.35 11.9C14.2565 11.9916 14.1309 12.0429 14 12.0429C13.8691 12.0429 13.7435 11.9916 13.65 11.9ZM12 6.00001L13.65 4.35001C13.6965 4.30315 13.7518 4.26595 13.8127 4.24057C13.8737 4.21518 13.939 4.20211 14.005 4.20211C14.071 4.20211 14.1364 4.21518 14.1973 4.24057C14.2582 4.26595 14.3135 4.30315 14.36 4.35001L16 6.00001H12Z" fill="white"/>
    </svg>
    