<svg width="16" height="16" viewBox="0 0 16 16" fill="none" xmlns="http://www.w3.org/2000/svg">
    <path d="M13.0621 14.964C13.1291 15.422 12.8451 15.626 12.4301 15.419L8.99305 13.685C8.75557 13.5815 8.49947 13.5273 8.24038 13.5259C7.98128 13.5246 7.72462 13.576 7.48605 13.677L4.03306 15.385C3.61806 15.585 3.33306 15.385 3.40606 14.923L3.99106 11.123C4.01547 10.8652 3.98728 10.605 3.90822 10.3584C3.82915 10.1117 3.70084 9.88366 3.53106 9.68804L0.846051 6.92504C0.523051 6.59204 0.632055 6.26004 1.08905 6.18604L4.88905 5.56703C5.14225 5.51078 5.38135 5.40357 5.59178 5.25193C5.80221 5.1003 5.97956 4.90742 6.11305 4.68504L7.90706 1.27903C8.12306 0.869032 8.47206 0.872032 8.68406 1.27903L10.447 4.70004C10.5786 4.92332 10.7543 5.11746 10.9634 5.27065C11.1724 5.42383 11.4105 5.53284 11.6631 5.59104L15.4561 6.24304C15.9141 6.32204 16.0201 6.65703 15.6941 6.98503L12.9831 9.72003C12.8119 9.91458 12.6819 10.1417 12.6008 10.3878C12.5197 10.6339 12.4891 10.8939 12.5111 11.152L13.0621 14.964Z" fill="url(#paint0_radial_1_216)"/>
    <path style="mix-blend-mode:multiply" opacity="0.5" d="M8.29304 1.16203C8.36504 1.16203 8.44704 1.23903 8.51404 1.36903L10.277 4.79103C10.4218 5.04051 10.6166 5.25729 10.8493 5.42769C11.082 5.59808 11.3475 5.7184 11.629 5.78104L15.422 6.43404C15.566 6.45704 15.664 6.51203 15.687 6.58203C15.71 6.65203 15.66 6.75203 15.557 6.85603L12.849 9.59103C12.6561 9.80559 12.5098 10.0579 12.4194 10.3319C12.329 10.606 12.2966 10.8958 12.324 11.183L12.875 14.991C12.8989 15.0863 12.8846 15.1872 12.835 15.272C12.8216 15.2863 12.805 15.2972 12.7866 15.304C12.7682 15.3107 12.7485 15.3132 12.729 15.311C12.6544 15.3067 12.5817 15.2858 12.516 15.25L9.07704 13.518C8.81352 13.4011 8.52865 13.3401 8.24038 13.3387C7.9521 13.3373 7.66666 13.3957 7.40204 13.51L3.95004 15.21C3.88472 15.2457 3.81233 15.2665 3.73804 15.271C3.71815 15.2729 3.69811 15.2701 3.67952 15.2628C3.66093 15.2555 3.64432 15.244 3.63104 15.229C3.58149 15.1445 3.56747 15.0439 3.59204 14.949L4.17704 11.149C4.2074 10.8615 4.17766 10.5708 4.08969 10.2953C4.00172 10.0199 3.85745 9.76575 3.66604 9.54903L0.980041 6.79003C0.880041 6.69003 0.831042 6.58203 0.853042 6.51503C0.875042 6.44803 0.975041 6.39303 1.11904 6.36903L4.91904 5.75003C5.20107 5.68968 5.46754 5.57152 5.70161 5.40302C5.93569 5.23452 6.1323 5.01933 6.27904 4.77103L8.07104 1.36403C8.13904 1.23703 8.22204 1.16403 8.29304 1.16403M8.29304 0.975029C8.2063 0.985657 8.12414 1.01991 8.05554 1.07405C7.98694 1.12819 7.93453 1.20014 7.90404 1.28204L6.11104 4.68504C5.97755 4.90742 5.80019 5.1003 5.58976 5.25193C5.37933 5.40356 5.14024 5.51078 4.88704 5.56703L1.08704 6.18604C0.629043 6.26004 0.521039 6.59203 0.844039 6.92503L3.53104 9.68504C3.70083 9.88065 3.82913 10.1087 3.9082 10.3554C3.98727 10.602 4.01546 10.8622 3.99104 11.12L3.40604 14.92C3.35304 15.259 3.49404 15.46 3.73804 15.46C3.84278 15.458 3.94557 15.4313 4.03804 15.382L7.49004 13.682C7.72794 13.5816 7.98362 13.5301 8.24184 13.5306C8.50007 13.5311 8.75555 13.5836 8.99304 13.685L12.43 15.417C12.5226 15.4664 12.6252 15.4941 12.73 15.498C12.971 15.498 13.112 15.298 13.063 14.962L12.511 11.153C12.4891 10.8948 12.5196 10.6349 12.6008 10.3888C12.6819 10.1427 12.8119 9.91558 12.983 9.72103L15.693 6.98503C16.018 6.65703 15.912 6.32303 15.455 6.24303L11.662 5.59103C11.4095 5.53284 11.1714 5.42383 10.9624 5.27065C10.7533 5.11746 10.5776 4.92332 10.446 4.70004L8.68104 1.28503C8.57504 1.07803 8.43604 0.975029 8.29304 0.975029Z" fill="url(#paint1_radial_1_216)"/>
    <defs>
    <radialGradient id="paint0_radial_1_216" cx="0" cy="0" r="1" gradientUnits="userSpaceOnUse" gradientTransform="translate(-0.576976 15.6743) scale(15.9167 15.9219)">
    <stop offset="0.355" stop-color="#FFC200"/>
    <stop offset="0.508" stop-color="#FFBC06"/>
    <stop offset="0.725" stop-color="#FFAE18"/>
    <stop offset="0.978" stop-color="#FF9736"/>
    <stop offset="1" stop-color="#FF953A"/>
    </radialGradient>
    <radialGradient id="paint1_radial_1_216" cx="0" cy="0" r="1" gradientUnits="userSpaceOnUse" gradientTransform="translate(-1.74092 19.6226) scale(23.0046 23.0044)">
    <stop offset="0.355" stop-color="#FFC200"/>
    <stop offset="0.508" stop-color="#FFBC06"/>
    <stop offset="0.725" stop-color="#FFAE18"/>
    <stop offset="0.978" stop-color="#FF9736"/>
    <stop offset="1" stop-color="#FF953A"/>
    </radialGradient>
    </defs>
    </svg>
    