<svg width="16" height="16" viewBox="0 0 16 16" fill="none" xmlns="http://www.w3.org/2000/svg">
    <path d="M12.9491 14.964C13.0151 15.422 12.7311 15.626 12.3171 15.419L8.88006 13.685C8.64257 13.5815 8.38647 13.5273 8.12738 13.5259C7.86829 13.5246 7.61163 13.576 7.37306 13.677L3.91406 15.385C3.49906 15.585 3.21406 15.385 3.28706 14.923L3.87206 11.123C3.89745 10.8648 3.86994 10.6041 3.79119 10.3569C3.71245 10.1096 3.58412 9.88102 3.41406 9.68504L0.731059 6.92504C0.408059 6.59204 0.518062 6.26004 0.974062 6.18604L4.77406 5.56703C5.02719 5.51061 5.26622 5.40334 5.47663 5.25172C5.68703 5.1001 5.86443 4.90731 5.99806 4.68504L7.79006 1.27903C8.00606 0.869032 8.35506 0.872032 8.56806 1.27903L10.3311 4.70004C10.4621 4.92355 10.6375 5.11789 10.8465 5.27112C11.0554 5.42435 11.2935 5.53322 11.5461 5.59104L15.3401 6.24304C15.7971 6.32204 15.9031 6.65703 15.5771 6.98503L12.8691 9.72003C12.6971 9.91406 12.5664 10.1411 12.4851 10.3873C12.4037 10.6335 12.3735 10.8937 12.3961 11.152L12.9491 14.964Z" fill="url(#paint0_radial_1_219)"/>
    <path style="mix-blend-mode:multiply" opacity="0.5" d="M8.17906 1.16203C8.25106 1.16203 8.33406 1.23903 8.40106 1.36903L10.1641 4.79103C10.3087 5.04037 10.5034 5.25705 10.7359 5.42743C10.9685 5.59781 11.2337 5.71821 11.5151 5.78104L15.3091 6.43404C15.4521 6.45704 15.5511 6.51203 15.5731 6.58203C15.5951 6.65203 15.5471 6.75203 15.4441 6.85603L12.7351 9.59103C12.5428 9.80632 12.3973 10.0591 12.3076 10.3335C12.2179 10.6078 12.1861 10.8978 12.2141 11.185L12.7661 14.993C12.778 15.0403 12.7804 15.0895 12.7732 15.1377C12.766 15.186 12.7493 15.2323 12.7241 15.274C12.7107 15.2884 12.6941 15.2994 12.6757 15.3062C12.6573 15.313 12.6376 15.3153 12.6181 15.313C12.5434 15.3086 12.4707 15.2877 12.4051 15.252L8.96606 13.52C8.70254 13.4031 8.41768 13.3421 8.1294 13.3407C7.84112 13.3393 7.55569 13.3977 7.29107 13.512L3.83906 15.212C3.77412 15.2478 3.70205 15.2686 3.62806 15.273C3.60815 15.2754 3.58797 15.2728 3.5693 15.2654C3.55064 15.2581 3.53407 15.2463 3.52106 15.231C3.49622 15.1893 3.47997 15.1431 3.47327 15.095C3.46657 15.0469 3.46956 14.9979 3.48206 14.951L4.06706 11.151C4.09754 10.8634 4.06776 10.5726 3.9796 10.2971C3.89145 10.0216 3.74687 9.76753 3.55507 9.55103L0.869061 6.79203C0.769061 6.69203 0.720062 6.58404 0.743062 6.51704C0.766062 6.45004 0.865061 6.39503 1.00806 6.37103L4.80806 5.75203C5.08992 5.69155 5.35619 5.57334 5.59008 5.40485C5.82398 5.23635 6.02044 5.02122 6.16707 4.77303L7.95906 1.36604C8.02706 1.23904 8.11006 1.16603 8.18107 1.16603M8.18107 0.977036C8.04207 0.977036 7.90107 1.07703 7.79207 1.28403L5.99806 4.68504C5.86444 4.90731 5.68704 5.1001 5.47663 5.25172C5.26622 5.40333 5.02719 5.51061 4.77406 5.56703L0.974064 6.18604C0.517064 6.26004 0.408061 6.59203 0.731061 6.92503L3.41406 9.68504C3.58409 9.8805 3.71256 10.1085 3.79165 10.3552C3.87073 10.6019 3.89878 10.8621 3.87407 11.12L3.28906 14.92C3.23706 15.259 3.37706 15.46 3.62206 15.46C3.72476 15.4571 3.82539 15.4304 3.91607 15.382L7.37006 13.682C7.60885 13.5818 7.86542 13.5309 8.12438 13.5323C8.38334 13.5336 8.63935 13.5873 8.87706 13.69L12.3141 15.422C12.4066 15.4716 12.5092 15.4993 12.6141 15.503C12.8561 15.503 12.9961 15.303 12.9481 14.967L12.3961 11.158C12.3735 10.8997 12.4037 10.6395 12.4851 10.3933C12.5664 10.1471 12.6971 9.92006 12.8691 9.72604L15.5771 6.99104C15.9021 6.66304 15.7961 6.32903 15.3401 6.24903L11.5461 5.59703C11.2935 5.53921 11.0554 5.43034 10.8465 5.27711C10.6375 5.12389 10.4621 4.92954 10.3311 4.70603L8.56907 1.28503C8.46207 1.07803 8.32206 0.975029 8.17906 0.975029L8.18107 0.977036Z" fill="url(#paint1_radial_1_219)"/>
    <defs>
    <radialGradient id="paint0_radial_1_219" cx="0" cy="0" r="1" gradientUnits="userSpaceOnUse" gradientTransform="translate(-1.41721 15.6743) scale(15.9144 15.9219)">
    <stop offset="0.355" stop-color="#DBDBDB"/>
    <stop offset="0.549" stop-color="#D4D4D4"/>
    <stop offset="0.823" stop-color="#C2C2C2"/>
    <stop offset="0.995" stop-color="#B3B3B3"/>
    </radialGradient>
    <radialGradient id="paint1_radial_1_219" cx="0" cy="0" r="1" gradientUnits="userSpaceOnUse" gradientTransform="translate(-2.57915 19.629) scale(22.9997 23.0124)">
    <stop offset="0.355" stop-color="#DBDBDB"/>
    <stop offset="0.549" stop-color="#D4D4D4"/>
    <stop offset="0.823" stop-color="#C2C2C2"/>
    <stop offset="0.995" stop-color="#B3B3B3"/>
    </radialGradient>
    </defs>
    </svg>
    