<svg  viewBox="0 0 22 18" fill="none" xmlns="http://www.w3.org/2000/svg">
<path d="M12.35 17.13C11.9807 17.4631 11.5004 17.6466 11.0031 17.6448C10.5057 17.643 10.0269 17.4558 9.66 17.12L9.55 17.02C4.3 12.27 0.870001 9.15999 1 5.27999C1.02993 4.43228 1.25699 3.6032 1.66317 2.85854C2.06935 2.11387 2.64348 1.4741 3.34 0.989991C4.52831 0.198296 5.96689 -0.127237 7.38027 0.0757292C8.79366 0.278696 10.0825 0.995896 11 2.08999C11.9154 0.992852 13.2046 0.273393 14.6189 0.0702833C16.0333 -0.132826 17.4728 0.194792 18.66 0.989991C19.3565 1.4741 19.9306 2.11387 20.3368 2.85854C20.743 3.6032 20.9701 4.43228 21 5.27999C21.14 9.15999 17.7 12.27 12.45 17.04L12.35 17.13Z" fill="white"/>
</svg>
