<svg width="19" height="19" viewBox="0 0 19 19" fill="none" xmlns="http://www.w3.org/2000/svg">
<path d="M13.5 12H12.71L12.43 11.73C13.5266 10.4524 14.0855 8.79959 13.9895 7.11866C13.8934 5.43772 13.1498 3.85937 11.9149 2.71498C10.6799 1.5706 9.04958 0.949188 7.3662 0.981221C5.68283 1.01325 4.07733 1.69624 2.88679 2.88678C1.69625 4.07732 1.01327 5.68281 0.981236 7.36619C0.949204 9.04956 1.57061 10.6799 2.715 11.9148C3.85938 13.1498 5.43773 13.8934 7.11867 13.9894C8.79961 14.0855 10.4524 13.5266 11.73 12.43L12 12.71V13.5L17 18.49L18.49 17L13.5 12ZM7.5 12C6.60998 12 5.73995 11.7361 4.99993 11.2416C4.25991 10.7471 3.68313 10.0443 3.34254 9.22206C3.00195 8.39979 2.91283 7.49499 3.08646 6.62208C3.2601 5.74916 3.68868 4.94734 4.31802 4.318C4.94735 3.68867 5.74918 3.26008 6.62209 3.08645C7.49501 2.91282 8.39981 3.00193 9.22207 3.34253C10.0443 3.68312 10.7471 4.2599 11.2416 4.99992C11.7361 5.73994 12 6.60997 12 7.49998C12.0008 8.09115 11.8849 8.67667 11.6591 9.22299C11.4332 9.76931 11.1018 10.2657 10.6837 10.6837C10.2657 11.1017 9.76933 11.4332 9.22301 11.659C8.67669 11.8849 8.09117 12.0008 7.5 12Z" fill="white"/>
</svg>
