<svg width="38" height="38" viewBox="0 0 38 38" fill="none" xmlns="http://www.w3.org/2000/svg">
    <path d="M19 38C29.4934 38 38 29.4934 38 19C38 8.50659 29.4934 0 19 0C8.50659 0 0 8.50659 0 19C0 29.4934 8.50659 38 19 38Z" fill="url(#paint0_linear_1_425)"/>
    <path d="M23.453 14.814L18.187 17.072L23.46 16.372L23.453 14.814ZM18.194 20.93L23.46 23.189V21.63L18.194 20.93ZM24.856 12.689L24.863 17.598L14.344 19L24.862 20.4L24.855 25.309L10.137 19L24.856 12.689Z" fill="#FEFEFE"/>
    <defs>
    <linearGradient id="paint0_linear_1_425" x1="19" y1="0" x2="19" y2="38" gradientUnits="userSpaceOnUse">
    <stop stop-color="#D20653"/>
    <stop offset="1" stop-color="#9B0257"/>
    </linearGradient>
    </defs>
    </svg>
    